<svg width="15" height="14" viewBox="0 0 15 14" fill="none" xmlns="http://www.w3.org/2000/svg">
<g clip-path="url(#clip0_1127_2155)">
<path d="M13.9223 0.150827C13.5712 0.0428744 4.98223 -0.855475 1.96586 3.42567C0.629938 5.32223 0.60987 7.9221 1.89891 11.1525C1.57192 11.8655 1.28566 12.6166 1.05237 13.4091C0.981448 13.6499 1.10974 13.9052 1.33871 13.9795C1.3814 13.9934 1.42463 14 1.46731 14C1.65243 14 1.82429 13.8744 1.88166 13.6787C4.18067 5.87028 11.652 2.09267 13.9431 1.13834C14.1661 1.0454 14.464 0.317405 13.9223 0.150827Z" fill="#84829A"/>
<path d="M3.27783 12.1297C4.52138 12.6777 5.76474 12.9586 6.92099 12.9586C7.96027 12.9586 8.92948 12.7341 9.76467 12.2789C11.4455 11.3629 12.4727 9.61072 12.735 7.21123C13.0022 4.76581 13.3349 3.23407 13.6124 2.29703C11.142 3.49419 5.84493 6.59731 3.27783 12.1297Z" fill="#84829A"/>
</g>
<defs>
<clipPath id="clip0_1127_2155">
<rect width="13.3264" height="14" fill="white" transform="translate(0.924805)"/>
</clipPath>
</defs>
</svg>
