<svg width="16" height="14" viewBox="0 0 16 14" fill="none" xmlns="http://www.w3.org/2000/svg">
<g clip-path="url(#clip0_1136_3345)">
<path d="M14.9754 0.150827C14.5833 0.0428744 4.99109 -0.855475 1.62238 3.42567C0.130412 5.32223 0.108 7.9221 1.54761 11.1525C1.18243 11.8655 0.862733 12.6166 0.602193 13.4091C0.522981 13.6499 0.666259 13.9052 0.921974 13.9795C0.969647 13.9934 1.01793 14 1.0656 14C1.27234 14 1.46428 13.8744 1.52834 13.6787C4.0959 5.87028 12.4399 2.09267 14.9987 1.13834C15.2477 1.0454 15.5805 0.317405 14.9754 0.150827Z" fill="#84829A"/>
<path d="M3.08789 12.1295C4.47669 12.6776 5.86529 12.9585 7.1566 12.9585C8.31727 12.9585 9.39969 12.734 10.3324 12.2788C12.2097 11.3628 13.3568 9.61057 13.6497 7.21108C13.9481 4.76565 14.3197 3.23392 14.6297 2.29688C11.8707 3.49404 5.95485 6.59716 3.08789 12.1295Z" fill="#84829A"/>
</g>
<defs>
<clipPath id="clip0_1136_3345">
<rect width="14.8831" height="14" fill="white" transform="translate(0.459961)"/>
</clipPath>
</defs>
</svg>
