<svg width="40" height="40" viewBox="0 0 40 40" fill="none" xmlns="http://www.w3.org/2000/svg">
<path d="M24.7919 11.9045C26.1064 11.9771 27.3388 12.5664 28.2207 13.5438C29.1025 14.5212 29.5624 15.8075 29.4999 17.1225C29.4999 20.1945 26.8479 22.0815 24.3029 24.3445C21.7909 26.5875 20.4379 27.8135 19.9999 28.0965C19.5229 27.7875 17.8569 26.2735 15.6969 24.3445C13.1409 22.0725 10.4999 20.1675 10.4999 17.1225C10.4375 15.8075 10.8973 14.5212 11.7792 13.5438C12.6611 12.5664 13.8935 11.9771 15.2079 11.9045C15.9361 11.8824 16.6575 12.0496 17.3016 12.3899C17.9458 12.7301 18.4906 13.2316 18.8829 13.8455C19.7229 15.0205 19.8629 15.6085 20.0029 15.6085C20.1429 15.6085 20.2809 15.0205 21.1129 13.8425C21.503 13.2258 22.048 12.7223 22.6936 12.3822C23.3392 12.0421 24.0627 11.8774 24.7919 11.9045ZM24.7919 9.90446C23.8839 9.87539 22.9809 10.0515 22.1504 10.4198C21.3198 10.7881 20.583 11.339 19.9949 12.0315C19.4073 11.341 18.672 10.7914 17.8435 10.4232C17.0149 10.0551 16.1142 9.87777 15.2079 9.90446C13.3628 9.97661 11.6213 10.7764 10.3643 12.1291C9.10722 13.4817 8.43692 15.277 8.49992 17.1225C8.49992 20.7325 11.0499 22.9495 13.5149 25.0925C13.7979 25.3385 14.0839 25.5865 14.3679 25.8395L15.3949 26.7575C16.515 27.8232 17.6892 28.8306 18.9129 29.7755C19.2367 29.9851 19.6142 30.0966 19.9999 30.0966C20.3856 30.0966 20.7631 29.9851 21.0869 29.7755C22.3496 28.8017 23.56 27.7619 24.7129 26.6605L25.6349 25.8365C25.9279 25.5765 26.2249 25.3175 26.5199 25.0625C28.8539 23.0375 31.4999 20.7425 31.4999 17.1225C31.5629 15.277 30.8926 13.4817 29.6356 12.1291C28.3785 10.7764 26.6371 9.97661 24.7919 9.90446Z" fill="#262626"/>
</svg>
