<svg width="166" height="37" viewBox="0 0 166 37" fill="none" xmlns="http://www.w3.org/2000/svg">
<path fill-rule="evenodd" clip-rule="evenodd" d="M125.505 9.44798C102.328 5.79652 95.6923 4.91641 82.7852 3.7826C69.4094 2.60762 59.819 2.10599 44.577 1.78413C41.0435 1.70951 37.2637 1.56315 32.8357 1.32933C16.5699 0.470367 13.397 0.447202 8.08683 1.14793C5.45577 1.4953 3.18776 1.65647 1.92512 1.58625C0.80254 1.52365 0.595827 1.57282 0.578125 1.90655C0.562482 2.20146 2.33273 2.77583 3.31664 2.79495C3.66922 2.802 4.62373 2.83521 5.43784 2.86916C6.25195 2.90292 8.04631 2.92439 9.42531 2.91681C12.6726 2.89871 14.2266 2.9869 19.7784 3.50424C29.1115 4.37397 36.1705 4.87146 44.8524 5.27141C48.0519 5.41872 52.3001 5.61441 54.2928 5.70617C69.406 6.40188 87.8325 7.89901 99.0641 9.34402C112.694 11.0972 154.929 17.9938 154.191 18.3454C153.898 18.4848 148.994 19.0387 146.06 19.2637C143.365 19.4705 138.87 19.6613 133.345 19.8032C130.725 19.8706 127.129 19.9693 125.353 20.0225C118.684 20.2224 116.489 20.262 112.706 20.251C95.2807 20.2 83.7365 20.8005 67.6177 22.5957C58.0367 23.6627 50.1361 25.4364 41.2609 28.513C36.215 30.2621 35.7123 30.6425 36.1058 32.4137C36.3619 33.5661 38.8303 34.1468 43.8661 34.2392C53.0691 34.4081 61.7046 34.8044 70.0567 35.4412C75.2956 35.8406 75.9904 35.875 81.332 36.0007C83.3271 36.0478 86.7714 36.21 88.986 36.3615L93.0125 36.6369L87.7004 35.5235C79.6508 33.8362 71.0003 32.3198 68.1369 32.0943C58.657 31.3476 53.4897 31.15 45.029 31.2103C43.0123 31.2248 41.3132 31.1959 41.253 31.1463C40.6728 30.6663 54.4026 27.3993 60.9193 26.4667C75.6299 24.3611 90.7085 23.5167 113.813 23.5044C115.923 23.5033 120.162 23.4341 123.233 23.3508C126.304 23.2673 131.145 23.1369 133.991 23.0606C144.944 22.7676 148.216 22.5154 158.8 21.1486C165.578 20.2731 165.615 20.2618 165.868 18.9413C166.147 17.4895 165.649 16.72 164.128 16.256C162.683 15.815 135.456 11.0157 125.505 9.44798ZM93.4524 36.5634C93.5761 36.6309 93.7587 36.6615 93.8581 36.6314C93.9575 36.6012 93.8563 36.5458 93.6332 36.5084C93.4101 36.471 93.3288 36.4958 93.4524 36.5634Z" fill="white"/>
</svg>
