<svg width="250" height="21" viewBox="0 0 250 21" fill="none" xmlns="http://www.w3.org/2000/svg">
<path fill-rule="evenodd" clip-rule="evenodd" d="M194.738 0.0174828C162.536 0.271304 141.195 1.24993 98.5136 4.42995C94.7599 4.70954 88.8911 5.14522 85.4719 5.39813C57.3051 7.4808 17.9935 12.6463 7.1771 15.6859C4.93393 16.3163 0.9375 18.0667 0.9375 18.4189C0.9375 18.4772 1.12414 18.3858 1.85826 17.9682C5.24274 16.0427 14.3234 14.3208 36.6839 11.3644C49.8922 9.61796 64.3256 8.04134 76.2144 7.04638C85.2893 6.28684 128.351 3.33123 129.8 3.36858C130.097 3.37618 128.455 3.52807 126.151 3.70606C101.397 5.61846 92.9685 6.39378 78.0388 8.13216C66.4709 9.47902 59.6848 10.4667 42.3436 13.3279C35.8193 14.4042 36.0077 14.3643 35.9042 14.6968C35.642 15.539 36.4776 15.5578 41.8361 14.8297C78.1755 9.89255 99.8627 8.09719 133.855 7.212C143 6.97384 174.683 6.75577 174.128 6.93479C173.811 7.03707 164.282 7.66379 148.315 8.63242C112.591 10.7998 89.7324 13.374 64.5663 18.0639C57.5884 19.3642 56.3363 19.7734 56.9452 20.5542C57.5884 21.3786 61.5659 21.1441 81.0121 19.1347C110.136 16.1251 120.951 15.3191 144.261 14.4204C149.68 14.2115 158.987 13.9981 158.722 14.0889C158.647 14.1142 152.779 14.6745 145.68 15.3339C127.918 16.9838 116.521 18.1934 116.123 18.4708C115.509 18.8985 115.686 19.5154 116.476 19.6995C117.438 19.9241 120.159 19.8012 126.421 19.2504C140.002 18.0559 153.574 17.4012 173.642 16.9722C176.645 16.9079 180.142 16.8069 181.413 16.7477C184.369 16.6098 189.055 16.6102 191.224 16.7484C192.154 16.8076 193.309 16.8806 193.792 16.9107C195.625 17.0245 189.27 16.2912 186.562 16.0761C179.772 15.5371 170.921 15.4165 160.425 15.7198C158.018 15.7894 156.027 15.8287 156.001 15.8074C155.948 15.7624 158.388 15.5528 170.209 14.5869C179.273 13.8462 179.5 13.8135 179.846 13.2018C180.065 12.8137 179.846 12.352 179.332 12.1185C178.942 11.9418 165.705 11.9976 158.519 12.2061C141.29 12.7062 132.161 13.1325 120.678 13.9731C109.059 14.8237 101.341 15.5839 82.0362 17.7792C70.2836 19.1157 64.0953 19.7587 62.0239 19.8587L60.74 19.9206L62.2942 19.5827C67.0884 18.5405 83.0694 15.998 92.1617 14.8309C111.049 12.4066 123.956 11.2942 152.91 9.5956C177.239 8.16836 182.221 7.74064 182.597 7.0474C183.003 6.30046 182.28 5.85673 180.278 5.62357C177.547 5.30562 143.841 5.38678 131.895 5.74004C120.181 6.08649 106.269 6.75725 98.9191 7.33005C98.1386 7.39089 97.2872 7.43414 97.027 7.4262C95.1144 7.36785 121.432 5.2223 136.49 4.20905C152.986 3.0991 166.036 2.45841 184.129 1.87029C195.828 1.49012 225.69 1.64916 237.783 2.15623C248.984 2.62596 249.386 2.63232 249.726 2.34717C250.08 2.04976 250.09 1.82919 249.761 1.55324C249.343 1.20202 246.986 1.01597 241.634 0.911537C239.664 0.873055 235.316 0.717421 231.971 0.565537C228.626 0.413766 224.491 0.238159 222.781 0.175271C219.556 0.0566474 202.173 -0.0410912 194.738 0.0174828ZM135.175 3.0882C135.083 3.1193 134.901 3.12123 134.769 3.0924C134.638 3.06356 134.713 3.03814 134.936 3.03587C135.159 3.0336 135.266 3.0571 135.175 3.0882ZM133.417 3.20716C133.251 3.23406 132.947 3.23475 132.741 3.20875C132.536 3.18264 132.672 3.16062 133.044 3.15971C133.415 3.15892 133.583 3.18026 133.417 3.20716ZM131.591 3.32204C131.386 3.34804 131.052 3.34804 130.848 3.32204C130.643 3.29605 130.81 3.27482 131.219 3.27482C131.628 3.27482 131.795 3.29605 131.591 3.32204ZM96.2499 7.52098C96.0827 7.548 95.8089 7.548 95.6417 7.52098C95.4746 7.49385 95.6113 7.47172 95.9458 7.47172C96.2803 7.47172 96.4171 7.49385 96.2499 7.52098ZM94.7633 7.6295C94.6704 7.66106 94.5184 7.66106 94.4254 7.6295C94.3326 7.59806 94.4085 7.5723 94.5944 7.5723C94.7802 7.5723 94.8563 7.59806 94.7633 7.6295ZM194.975 17.0513C195.068 17.0829 195.22 17.0829 195.313 17.0513C195.406 17.0199 195.33 16.9941 195.144 16.9941C194.958 16.9941 194.882 17.0199 194.975 17.0513Z" fill="white"/>
</svg>
