<svg width="188" height="32" viewBox="0 0 188 32" fill="none" xmlns="http://www.w3.org/2000/svg">
<path fill-rule="evenodd" clip-rule="evenodd" d="M149.284 0.848374C128.883 1.32527 114.428 2.46289 94.3202 5.17377C77.7813 7.40363 66.8201 9.21547 48.105 12.8131C37.0999 14.9285 32.7897 15.9067 24.0356 18.2754C17.141 20.141 12.8324 21.2337 8.75182 22.1514C2.67875 23.5174 0.538086 24.151 0.538086 24.5829C0.538086 24.7731 0.740414 24.8194 0.914358 24.669C1.06522 24.5386 1.89127 24.3416 6.96466 23.2266C11.2119 22.2932 14.3477 21.5425 20.6565 19.9489C34.8101 16.3738 36.1207 16.1028 58.0692 12.2141C89.1889 6.70038 114.461 3.7733 138.716 2.87336C161.749 2.01872 180.715 2.36823 185.581 3.7368C186.385 3.96289 186.389 3.94347 185.473 4.30916C183.342 5.16038 178.566 6.14258 169.128 7.67035C158.349 9.41504 152.501 10.2248 134.973 12.4002C121.626 14.0567 121.305 14.1018 103.678 16.8053C85.2134 19.6372 77.0823 20.9969 66.04 23.0991C62.1406 23.8413 61.8123 23.8971 57.0129 24.6307C47.463 26.0906 39.262 27.6788 31.2096 29.6276C28.588 30.2621 28.1151 30.5481 28.8005 31.0843C29.3523 31.5161 33.9318 30.7744 45.2977 28.4128C59.3254 25.498 61.3004 25.1436 69.3671 24.0923C80.9319 22.5852 90.5721 21.6082 98.635 21.126C106.714 20.6428 120.223 20.0274 127.539 19.8094C131.625 19.6876 147.451 19.5919 148.24 19.6842L148.853 19.756L148.281 19.8754C147.285 20.0836 129.634 23.0443 121.873 24.305C119.442 24.6998 115.933 25.2495 114.075 25.5265C108.016 26.4298 95.0181 28.5459 92.7262 29.0021C91.2946 29.2872 90.7927 29.8667 91.4702 30.4524C91.9317 30.8514 95.0286 30.8859 101.754 30.5671C103.355 30.4913 106.303 30.3662 108.304 30.2893C110.306 30.2125 113.297 30.0496 114.952 29.9273C116.607 29.8051 119.086 29.6616 120.462 29.6086C121.838 29.5555 123.573 29.4805 124.316 29.4418L125.668 29.3715L124.472 29.3575C122.907 29.3391 119.224 29.1945 116.102 29.029C112.442 28.8349 104.424 28.8787 100.715 29.1131C100.296 29.1395 100.148 29.1249 100.265 29.0686C100.492 28.9586 109.94 27.4303 114.387 26.7842C127.825 24.8318 150.798 20.9493 151.949 20.4363C152.971 19.9811 152.894 19.1848 151.79 18.786C149.812 18.0714 131.564 18.2044 115.218 19.0525C113.817 19.1252 110.542 19.2873 107.94 19.4127C98.1554 19.8842 88.5391 20.564 84.9108 21.0408C84.6821 21.0709 84.5218 21.071 84.5546 21.0411C84.6868 20.9206 110.006 17.0392 119.828 15.6338C122.049 15.3159 128.482 14.4875 134.124 13.7926C153.734 11.3775 158.261 10.7543 170.115 8.83809C184.753 6.47195 188.729 5.2883 187.895 3.54613C187.2 2.09558 183.218 1.43476 172.143 0.932064C169.493 0.811784 153.373 0.752726 149.284 0.848374Z" fill="white"/>
</svg>
