<svg width="247" height="40" viewBox="0 0 247 40" fill="none" xmlns="http://www.w3.org/2000/svg">
<path fill-rule="evenodd" clip-rule="evenodd" d="M186.368 10.0767C151.832 6.16703 141.944 5.22469 122.711 4.01072C102.78 2.75265 88.4888 2.21555 65.7766 1.87093C60.5113 1.79104 54.8789 1.63433 48.2808 1.38397C24.043 0.464277 19.3151 0.439474 11.4023 1.18975C7.4817 1.56168 4.10211 1.73424 2.22064 1.65906C0.547877 1.59203 0.239853 1.64469 0.213475 2.00201C0.190165 2.31778 2.82803 2.93276 4.29416 2.95323C4.81955 2.96077 6.24187 2.99634 7.45498 3.03269C8.6681 3.06883 11.3419 3.09182 13.3968 3.08371C18.2356 3.06433 20.5512 3.15875 28.824 3.71267C42.7314 4.6439 53.25 5.17657 66.1869 5.60479C70.9546 5.76252 77.2849 5.97205 80.2542 6.07029C102.775 6.81519 130.232 8.41819 146.968 9.96537C167.278 11.8426 230.213 19.2268 229.113 19.6032C228.678 19.7525 221.37 20.3455 216.997 20.5865C212.981 20.8079 206.283 21.0121 198.051 21.1641C194.147 21.2363 188.788 21.342 186.142 21.3989C176.204 21.613 172.933 21.6553 167.297 21.6436C141.331 21.589 124.129 22.2319 100.11 24.1541C85.8331 25.2965 74.0602 27.1957 60.8353 30.4898C53.3164 32.3626 52.5672 32.7699 53.1536 34.6663C53.5353 35.9002 57.2134 36.522 64.7173 36.6208C78.4307 36.8017 91.2986 37.2261 103.744 37.9078C111.551 38.3355 112.586 38.3724 120.546 38.5069C123.518 38.5573 128.651 38.731 131.951 38.8932L137.951 39.1881L130.035 37.996C118.04 36.1893 105.15 34.5657 100.883 34.3243C86.7573 33.5248 79.0575 33.3132 66.4501 33.3778C63.4451 33.3933 60.9132 33.3624 60.8235 33.3092C59.959 32.7953 80.4179 29.2973 90.1284 28.2988C112.049 26.0443 134.518 25.1402 168.945 25.1271C172.09 25.1259 178.406 25.0518 182.983 24.9626C187.559 24.8731 194.773 24.7335 199.013 24.6519C215.334 24.3381 220.209 24.0681 235.981 22.6046C246.082 21.6672 246.136 21.6551 246.514 20.2413C246.929 18.6868 246.186 17.8629 243.921 17.366C241.768 16.8939 201.197 11.7552 186.368 10.0767ZM138.606 39.1093C138.791 39.1817 139.063 39.2145 139.211 39.1822C139.359 39.1499 139.208 39.0906 138.876 39.0505C138.543 39.0105 138.422 39.037 138.606 39.1093Z" fill="white"/>
</svg>
