<svg width="247" height="40" viewBox="0 0 247 40" fill="none" xmlns="http://www.w3.org/2000/svg">
<path fill-rule="evenodd" clip-rule="evenodd" d="M186.368 10.0757C151.831 6.16606 141.943 5.22371 122.711 4.00974C102.779 2.75167 88.4884 2.21457 65.7761 1.86996C60.5109 1.79006 54.8784 1.63335 48.2803 1.383C24.0425 0.4633 19.3146 0.438498 11.4018 1.18877C7.48122 1.5607 4.10162 1.73327 2.22015 1.65809C0.547389 1.59106 0.239365 1.64371 0.212987 2.00103C0.189676 2.3168 2.82755 2.93178 4.29367 2.95226C4.81906 2.9598 6.24139 2.99536 7.45449 3.03171C8.66761 3.06786 11.3414 3.09085 13.3963 3.08273C18.2351 3.06335 20.5507 3.15777 28.8235 3.71169C42.7309 4.64292 53.2495 5.17559 66.1865 5.60382C70.9541 5.76155 77.2844 5.97107 80.2537 6.06932C102.774 6.81422 130.232 8.41721 146.968 9.9644C167.277 11.8416 230.213 19.2258 229.113 19.6022C228.677 19.7515 221.369 20.3446 216.997 20.5855C212.98 20.807 206.283 21.0112 198.05 21.1631C194.146 21.2354 188.787 21.341 186.142 21.3979C176.204 21.612 172.933 21.6543 167.296 21.6426C141.33 21.588 124.128 22.2309 100.109 24.1531C85.8326 25.2955 74.0597 27.1947 60.8348 30.4888C53.3159 32.3616 52.5667 32.7689 53.1531 34.6653C53.5348 35.8992 57.2129 36.521 64.7168 36.6199C78.4302 36.8007 91.2981 37.2251 103.744 37.9068C111.55 38.3345 112.586 38.3714 120.545 38.5059C123.518 38.5564 128.65 38.73 131.95 38.8922L137.95 39.1872L130.035 37.995C118.04 36.1883 105.15 34.5648 100.883 34.3233C86.7568 33.5238 79.057 33.3122 66.4496 33.3768C63.4446 33.3923 60.9127 33.3614 60.8231 33.3082C59.9585 32.7944 80.4174 29.2963 90.1279 28.2978C112.048 26.0433 134.517 25.1392 168.945 25.1261C172.089 25.1249 178.406 25.0508 182.982 24.9616C187.559 24.8722 194.772 24.7326 199.012 24.6509C215.333 24.3371 220.209 24.0671 235.98 22.6037C246.081 21.6662 246.136 21.6541 246.513 20.2403C246.929 18.6858 246.186 17.8619 243.92 17.3651C241.768 16.8929 201.196 11.7543 186.368 10.0757ZM138.606 39.1084C138.79 39.1807 139.062 39.2135 139.21 39.1812C139.358 39.1489 139.208 39.0896 138.875 39.0495C138.543 39.0095 138.422 39.036 138.606 39.1084Z" fill="white"/>
</svg>
