<svg width="202" height="19" viewBox="0 0 202 19" fill="none" xmlns="http://www.w3.org/2000/svg">
<path fill-rule="evenodd" clip-rule="evenodd" d="M160.368 0.0297457C138.431 0.327805 122.888 1.03882 101.266 2.73312C83.4822 4.12678 71.6957 5.25917 51.5714 7.50768C39.7377 8.82981 35.1029 9.44122 25.6897 10.9216C18.2759 12.0876 13.6429 12.7705 9.25505 13.3441C2.7247 14.1978 0.422852 14.5939 0.422852 14.8638C0.422852 14.9827 0.640414 15.0116 0.827456 14.9176C0.989678 14.8361 1.87793 14.713 7.33332 14.0162C11.9004 13.4327 15.2722 12.9636 22.0562 11.9676C37.2754 9.73315 38.6847 9.56375 62.2858 7.13332C95.7488 3.68724 122.923 1.85782 149.005 1.29536C173.772 0.761212 194.167 0.979656 199.399 1.83501C200.264 1.97631 200.267 1.96418 199.283 2.19274C196.992 2.72475 191.856 3.33862 181.707 4.29348C170.117 5.38391 163.829 5.89002 144.981 7.24962C130.628 8.28494 130.283 8.31314 111.328 10.0028C91.4739 11.7728 82.7306 12.6225 70.8569 13.9364C66.6638 14.4003 66.3109 14.4352 61.1501 14.8937C50.881 15.8061 42.0625 16.7987 33.4039 18.0168C30.5848 18.4133 30.0764 18.592 30.8133 18.9272C31.4067 19.197 36.331 18.7335 48.5528 17.2575C63.6366 15.4358 65.7604 15.2142 74.4345 14.5572C86.8701 13.6153 97.2361 13.0046 105.906 12.7032C114.593 12.4012 129.12 12.0167 136.987 11.8804C141.38 11.8043 158.397 11.7444 159.246 11.8021L159.906 11.847L159.291 11.9216C158.22 12.0518 139.239 13.9022 130.893 14.6901C128.28 14.9368 124.507 15.2804 122.508 15.4536C115.994 16.0181 102.017 17.3407 99.5524 17.6258C98.013 17.804 97.4733 18.1662 98.2018 18.5323C98.6981 18.7816 102.028 18.8032 109.26 18.604C110.982 18.5565 114.151 18.4784 116.304 18.4303C118.456 18.3823 121.672 18.2805 123.452 18.2041C125.231 18.1277 127.897 18.038 129.377 18.0049C130.857 17.9717 132.721 17.9248 133.521 17.9006L134.974 17.8567L133.688 17.8479C132.006 17.8364 128.045 17.7461 124.689 17.6426C120.752 17.5213 112.131 17.5487 108.143 17.6952C107.692 17.7117 107.533 17.7026 107.659 17.6674C107.903 17.5986 118.062 16.6434 122.844 16.2397C137.294 15.0194 161.997 12.5928 163.235 12.2722C164.333 11.9877 164.25 11.49 163.063 11.2407C160.936 10.7941 141.315 10.8772 123.738 11.4073C122.232 11.4527 118.71 11.554 115.912 11.6324C105.39 11.9272 95.0501 12.352 91.1486 12.65C90.9026 12.6688 90.7302 12.6688 90.7655 12.6502C90.9076 12.5749 118.134 10.149 128.695 9.27064C131.083 9.07197 138.001 8.55417 144.068 8.11987C165.154 6.61047 170.022 6.22094 182.769 5.02331C198.508 3.54448 202.784 2.8047 201.887 1.71584C201.14 0.809247 196.858 0.396236 184.949 0.0820518C182.1 0.00687686 164.765 -0.0300346 160.368 0.0297457Z" fill="white"/>
</svg>
