<svg width="140" height="41" viewBox="0 0 140 41" fill="none" xmlns="http://www.w3.org/2000/svg">
<path fill-rule="evenodd" clip-rule="evenodd" d="M105.463 10.4247C85.9666 6.39329 80.385 5.4216 69.5279 4.16982C58.2765 2.87257 50.2093 2.31874 37.3881 1.96339C34.4159 1.88101 31.2364 1.71942 27.5117 1.46126C13.8293 0.512925 11.1604 0.487349 6.69359 1.26099C4.48042 1.6445 2.57262 1.82244 1.51052 1.74492C0.566241 1.67581 0.39236 1.7301 0.37747 2.09855C0.364311 2.42415 1.8534 3.05829 2.68103 3.0794C2.97762 3.08717 3.78053 3.12385 4.46533 3.16133C5.15014 3.1986 6.65951 3.22231 7.81949 3.21394C10.551 3.19396 11.8582 3.29132 16.5282 3.86249C24.379 4.82272 30.3168 5.37198 37.6198 5.81354C40.3111 5.97619 43.8846 6.19223 45.5608 6.29354C58.2737 7.06164 73.7736 8.71456 83.2212 10.3099C94.6861 12.2456 130.213 19.8598 129.592 20.2479C129.346 20.4019 125.221 21.0134 122.753 21.2619C120.486 21.4902 116.705 21.7008 112.057 21.8574C109.854 21.9319 106.828 22.0408 105.335 22.0995C99.7251 22.3203 97.8785 22.364 94.6967 22.3518C80.0387 22.2956 70.3281 22.9585 56.7693 24.9405C48.7101 26.1186 42.0643 28.0769 34.5988 31.4736C30.3543 33.4047 29.9314 33.8247 30.2624 35.7802C30.4779 37.0525 32.5542 37.6937 36.7902 37.7956C44.5314 37.9821 51.7954 38.4197 58.821 39.1227C63.2278 39.5637 63.8123 39.6017 68.3055 39.7404C69.9837 39.7924 72.8809 39.9715 74.7438 40.1387L78.1308 40.4429L73.6624 39.2136C66.8913 37.3506 59.6147 35.6765 57.2061 35.4275C49.2318 34.6031 44.8852 34.3849 37.7683 34.4516C36.072 34.4675 34.6427 34.4356 34.5921 34.3808C34.1041 33.8509 45.6532 30.244 51.1348 29.2143C63.509 26.8896 76.1927 25.9574 95.6273 25.9438C97.4023 25.9426 100.968 25.8662 103.552 25.7742C106.135 25.682 110.207 25.5381 112.601 25.4539C121.814 25.1303 124.566 24.8519 133.469 23.3428C139.171 22.3762 139.202 22.3638 139.415 20.9059C139.65 19.303 139.23 18.4534 137.951 17.9411C136.736 17.4542 113.833 12.1555 105.463 10.4247ZM78.5009 40.3616C78.6049 40.4362 78.7584 40.47 78.8421 40.4367C78.9257 40.4034 78.8405 40.3423 78.6529 40.301C78.4652 40.2596 78.3968 40.287 78.5009 40.3616Z" fill="white"/>
</svg>
