<svg width="166" height="37" viewBox="0 0 166 37" fill="none" xmlns="http://www.w3.org/2000/svg">
<path fill-rule="evenodd" clip-rule="evenodd" d="M125.505 9.44847C102.328 5.79701 95.6923 4.91689 82.7852 3.78309C69.4094 2.60811 59.819 2.10647 44.577 1.78462C41.0435 1.71 37.2637 1.56364 32.8357 1.32981C16.5699 0.470855 13.397 0.44769 8.08683 1.14842C5.45577 1.49578 3.18776 1.65695 1.92512 1.58674C0.80254 1.52414 0.595827 1.57331 0.578125 1.90703C0.562482 2.20195 2.33273 2.77632 3.31664 2.79544C3.66922 2.80248 4.62373 2.8357 5.43784 2.86965C6.25195 2.90341 8.04631 2.92488 9.42531 2.9173C12.6726 2.8992 14.2266 2.98739 19.7784 3.50473C29.1115 4.37446 36.1705 4.87195 44.8524 5.2719C48.0519 5.41921 52.3001 5.6149 54.2928 5.70666C69.406 6.40236 87.8325 7.89949 99.0641 9.34451C112.694 11.0977 154.929 17.9943 154.191 18.3458C153.898 18.4853 148.994 19.0392 146.06 19.2642C143.365 19.471 138.87 19.6618 133.345 19.8037C130.725 19.8711 127.129 19.9698 125.353 20.023C118.684 20.2229 116.489 20.2625 112.706 20.2515C95.2807 20.2005 83.7365 20.8009 67.6177 22.5962C58.0367 23.6632 50.136 25.4369 41.2609 28.5135C36.215 30.2626 35.7123 30.643 36.1058 32.4142C36.3619 33.5666 38.8303 34.1473 43.8661 34.2397C53.0691 34.4086 61.7046 34.8049 70.0567 35.4417C75.2956 35.8411 75.9904 35.8755 81.332 36.0012C83.3271 36.0483 86.7714 36.2105 88.986 36.362L93.0125 36.6374L87.7004 35.524C79.6508 33.8367 71.0003 32.3203 68.1369 32.0948C58.657 31.3481 53.4897 31.1504 45.029 31.2108C43.0123 31.2252 41.3132 31.1964 41.253 31.1467C40.6728 30.6668 54.4026 27.3998 60.9193 26.4672C75.6299 24.3616 90.7085 23.5172 113.813 23.5049C115.923 23.5038 120.162 23.4346 123.233 23.3513C126.304 23.2678 131.145 23.1374 133.991 23.0611C144.944 22.7681 148.216 22.5159 158.8 21.1491C165.578 20.2736 165.615 20.2623 165.868 18.9418C166.147 17.4899 165.649 16.7205 164.128 16.2564C162.683 15.8154 135.456 11.0162 125.505 9.44847ZM93.4524 36.5638C93.5761 36.6314 93.7587 36.662 93.8581 36.6319C93.9575 36.6017 93.8563 36.5463 93.6332 36.5089C93.4101 36.4715 93.3288 36.4963 93.4524 36.5638Z" fill="white"/>
</svg>
