<svg width="16" height="14" viewBox="0 0 16 14" fill="none" xmlns="http://www.w3.org/2000/svg">
<g clip-path="url(#clip0_1137_1656)">
<path d="M14.5106 3.56123e-08C14.4314 -2.92608e-05 14.3534 0.0180173 14.2826 0.0527336L10.4222 1.94771L6.05694 0.0432416C6.04981 0.0402533 6.04166 0.039726 6.03402 0.0367377C6.01438 0.0295308 5.99429 0.0235251 5.9739 0.0187497C5.95363 0.0133885 5.93304 0.00919911 5.91226 0.00624017C5.87089 0.00290038 5.82931 0.00290038 5.78797 0.00624017C5.7672 0.00919911 5.7466 0.0133885 5.72633 0.0187497C5.70595 0.0235251 5.68586 0.0295308 5.66622 0.0367377C5.65858 0.039726 5.65043 0.040224 5.64329 0.0432416L1.05847 2.04322C0.87442 2.12343 0.75583 2.30255 0.755859 2.50019V13.5C0.755949 13.6692 0.843138 13.8268 0.987638 13.919C1.13217 14.0114 1.31446 14.0257 1.47209 13.957L5.85009 12.047L10.2281 13.957C10.2357 13.96 10.2439 13.957 10.2515 13.9615C10.3749 14.0157 10.5164 14.0126 10.6371 13.953C10.6453 13.9496 10.6545 13.953 10.6626 13.9475L14.738 11.9476C14.9107 11.8629 15.0198 11.6896 15.0197 11.5V0.500237C15.0199 0.224088 14.7919 0.000117221 14.5106 3.56123e-08ZM5.34068 11.1751L1.7747 12.7305V2.8252L5.34068 1.26971V11.1751ZM9.92551 12.7305L6.35952 11.1751V1.26971L9.92551 2.82517V12.7305ZM14.0009 11.1911L10.9443 12.691V2.80918L14.0009 1.3092V11.1911V11.1911Z" fill="#84829A"/>
</g>
<defs>
<clipPath id="clip0_1137_1656">
<rect width="14.2641" height="14" fill="white" transform="translate(0.754883)"/>
</clipPath>
</defs>
</svg>
