<svg width="16" height="14" viewBox="0 0 16 14" fill="none" xmlns="http://www.w3.org/2000/svg">
<g clip-path="url(#clip0_1136_3359)">
<path d="M15.1562 3.56123e-08C15.0737 -2.92608e-05 14.9922 0.0180173 14.9184 0.0527336L10.8905 1.94771L6.3358 0.0432416C6.32835 0.0402533 6.31985 0.039726 6.31188 0.0367378C6.29138 0.0295308 6.27042 0.0235251 6.24915 0.0187497C6.22801 0.0133885 6.20652 0.00919911 6.18484 0.00624017C6.14167 0.00290038 6.09829 0.00290038 6.05516 0.00624017C6.03348 0.00919911 6.01199 0.0133885 5.99084 0.0187497C5.96957 0.0235251 5.94861 0.0295308 5.92812 0.0367378C5.92014 0.039726 5.91164 0.040224 5.9042 0.0432416L1.12043 2.04322C0.928393 2.12343 0.804656 2.30255 0.804688 2.50019V13.5C0.804781 13.6692 0.895754 13.8268 1.04652 13.919C1.19732 14.0114 1.38752 14.0257 1.552 13.957L6.11997 12.047L10.6879 13.957C10.6959 13.96 10.7044 13.957 10.7124 13.9615C10.8411 14.0157 10.9888 14.0126 11.1147 13.953C11.1232 13.9496 11.1328 13.953 11.1413 13.9475L15.3935 11.9476C15.5737 11.8629 15.6876 11.6896 15.6875 11.5V0.500237C15.6877 0.224088 15.4498 0.000117221 15.1562 3.56123e-08ZM5.58846 11.1751L1.86774 12.7305V2.8252L5.58846 1.26971V11.1751ZM10.3722 12.7305L6.65151 11.1751V1.26971L10.3722 2.82517V12.7305ZM14.6245 11.1911L11.4353 12.691V2.80918L14.6245 1.3092V11.1911Z" fill="#84829A"/>
</g>
<defs>
<clipPath id="clip0_1136_3359">
<rect width="14.8831" height="14" fill="white" transform="translate(0.803711)"/>
</clipPath>
</defs>
</svg>
