<svg width="36" height="40" viewBox="0 0 36 40" fill="none" xmlns="http://www.w3.org/2000/svg">
<path d="M20 21.5C20.8284 21.5 21.5 20.8284 21.5 20C21.5 19.1716 20.8284 18.5 20 18.5C19.1716 18.5 18.5 19.1716 18.5 20C18.5 20.8284 19.1716 21.5 20 21.5Z" fill="black"/>
<path d="M14 21.5C14.8284 21.5 15.5 20.8284 15.5 20C15.5 19.1716 14.8284 18.5 14 18.5C13.1716 18.5 12.5 19.1716 12.5 20C12.5 20.8284 13.1716 21.5 14 21.5Z" fill="black"/>
<path d="M26 21.5C26.8284 21.5 27.5 20.8284 27.5 20C27.5 19.1716 26.8284 18.5 26 18.5C25.1716 18.5 24.5 19.1716 24.5 20C24.5 20.8284 25.1716 21.5 26 21.5Z" fill="black"/>
</svg>
