<svg width="15" height="14" viewBox="0 0 15 14" fill="none" xmlns="http://www.w3.org/2000/svg">
<path d="M13.2741 1.24215L6.83741 7.58298C6.76362 7.54102 6.68602 7.50587 6.60562 7.47798L2.3561 6.06631C2.22759 6.0347 2.11352 5.96185 2.03202 5.85934C1.95052 5.75682 1.90625 5.63051 1.90625 5.50048C1.90625 5.37045 1.95052 5.24414 2.03202 5.14162C2.11352 5.03911 2.22759 4.96626 2.3561 4.93465L12.8997 1.25381C12.9686 1.23085 13.0408 1.21902 13.1136 1.21881C13.1681 1.21795 13.2223 1.22583 13.2741 1.24215V1.24215Z" fill="#84829A"/>
<path d="M13.6841 2.02375L9.93382 12.3838C9.89246 12.5045 9.81198 12.6086 9.70466 12.6803C9.59734 12.7519 9.46908 12.7871 9.33948 12.7804C9.20838 12.7863 9.07898 12.7494 8.97147 12.6756C8.86395 12.6017 8.78437 12.495 8.74514 12.3721L7.33061 8.20125C7.3022 8.12233 7.26638 8.04617 7.22363 7.97375L13.696 1.65625C13.7325 1.7768 13.7283 1.90571 13.6841 2.02375V2.02375Z" fill="#84829A"/>
</svg>
