<svg width="37" height="67" viewBox="0 0 37 67" fill="none" xmlns="http://www.w3.org/2000/svg">
<path d="M34.949 31.1068L34.9492 31.107C35.5004 31.6684 35.8096 32.4283 35.8096 33.2194C35.8096 34.0099 35.5016 34.7709 34.949 35.332L34.949 31.1068ZM34.949 31.1068L5.83506 1.48986L5.83495 1.48975C4.68478 0.32039 2.8186 0.322491 1.67059 1.49569L1.67048 1.4958C0.528453 2.66364 0.531519 4.55114 1.6763 5.71577L1.67631 5.71578L28.7127 33.2194L1.67533 60.723L1.67527 60.723C0.530673 61.8878 0.527607 63.7742 1.66945 64.9422L1.66961 64.9423C2.24362 65.5289 2.99898 65.8244 3.75513 65.8244C4.50923 65.8244 5.26173 65.5309 5.83483 64.9483L5.83493 64.9482L34.9486 35.3324L34.949 31.1068Z" fill="white" stroke="black"/>
</svg>
