<svg width="38" height="67" viewBox="0 0 38 67" fill="none" xmlns="http://www.w3.org/2000/svg">
<path d="M35.6592 30.9396L35.659 30.9394L6.50423 1.32249L6.50413 1.32239C5.35267 0.153361 3.48471 0.155458 2.33541 1.32832L2.3353 1.32844C1.19161 2.49634 1.19468 4.38422 2.34113 5.5489L2.34114 5.54891L29.4153 33.0523L2.34016 60.5556L2.3401 60.5557C1.19383 61.7205 1.19076 63.6073 2.33427 64.7753L2.33443 64.7755C2.90916 65.362 3.66533 65.6573 4.42213 65.6573C5.17688 65.6573 5.93019 65.364 6.50401 64.7814L6.50411 64.7813L35.6586 35.1655C36.2123 34.6044 36.521 33.8432 36.521 33.0523C36.521 32.2609 36.2112 31.5009 35.6592 30.9396Z" fill="white" stroke="black"/>
</svg>
