<svg width="61" height="20" viewBox="0 0 61 20" fill="none" xmlns="http://www.w3.org/2000/svg">
<path d="M3 19.0049L6.48763 5.08783C7.01608 2.97908 10.0128 2.97908 10.5413 5.08783L12.0021 10.9171C12.5305 13.0259 15.5272 13.0259 16.0557 10.9171L17.5165 5.08783C18.045 2.97908 21.0417 2.97908 21.5701 5.08783L23.0309 10.9171C23.5594 13.0259 26.5561 13.0259 27.0846 10.9171L28.5454 5.08783C29.0738 2.97908 32.0706 2.97908 32.599 5.08783L34.0598 10.9171C34.5883 13.0259 37.585 13.0259 38.1134 10.9171L39.5743 5.08783C40.1027 2.97908 43.0994 2.97908 43.6279 5.08783L45.0887 10.9171C45.6172 13.0259 48.6139 13.0259 49.1423 10.9171L50.6031 5.08783C51.1316 2.97908 54.1283 2.97908 54.6568 5.08783L58.1444 19.0049" stroke="#5D17B0" stroke-width="5.22371"/>
</svg>
