<svg width="73" height="17" viewBox="0 0 73 17" fill="none" xmlns="http://www.w3.org/2000/svg">
<path d="M3.15771 15.6711L7.94085 4.49052C8.66392 2.80034 11.0599 2.80033 11.783 4.49052L14.6451 11.1806C15.3681 12.8708 17.7641 12.8708 18.4872 11.1806L21.3493 4.49052C22.0723 2.80034 24.4683 2.80033 25.1914 4.49052L28.0535 11.1806C28.7765 12.8708 31.1725 12.8708 31.8956 11.1806L34.7577 4.49052C35.4807 2.80034 37.8767 2.80033 38.5998 4.49052L41.4619 11.1806C42.1849 12.8708 44.5809 12.8708 45.304 11.1806L48.1661 4.49052C48.8892 2.80034 51.2852 2.80033 52.0082 4.49052L54.8703 11.1806C55.5934 12.8708 57.9894 12.8708 58.7124 11.1806L61.5745 4.49052C62.2976 2.80034 64.6936 2.80033 65.4166 4.49052L70.1998 15.6711" stroke="#5D17B0" stroke-width="5.22371"/>
</svg>
