<svg width="38" height="67" viewBox="0 0 38 67" fill="none" xmlns="http://www.w3.org/2000/svg">
<path d="M35.6592 30.9398L35.659 30.9396L6.50423 1.32261L6.50413 1.32251C5.35267 0.153483 3.48471 0.15558 2.33541 1.32845L2.3353 1.32856C1.19161 2.49646 1.19468 4.38434 2.34113 5.54903L2.34114 5.54904L29.4153 33.0524L2.34016 60.5557L2.3401 60.5558C1.19383 61.7206 1.19076 63.6074 2.33427 64.7754L2.33443 64.7756C2.90916 65.3621 3.66533 65.6574 4.42213 65.6574C5.17688 65.6574 5.93019 65.3641 6.50401 64.7815L6.5041 64.7814L35.6586 35.1656C36.2123 34.6045 36.521 33.8433 36.521 33.0525C36.521 32.261 36.2112 31.5011 35.6592 30.9398Z" fill="white" stroke="black"/>
</svg>
