<svg width="66" height="16" viewBox="0 0 66 16" fill="none" xmlns="http://www.w3.org/2000/svg">
<path d="M2.57568 14.6711L6.67414 4.05119C7.3622 2.26827 9.88479 2.26827 10.5729 4.05119L12.7219 9.61995C13.41 11.4029 15.9326 11.4029 16.6207 9.61995L18.7698 4.05119C19.4578 2.26827 21.9804 2.26827 22.6685 4.05119L24.8176 9.61995C25.5056 11.4029 28.0282 11.4029 28.7163 9.61995L30.8654 4.05119C31.5534 2.26827 34.076 2.26827 34.7641 4.05119L36.9132 9.61995C37.6013 11.4029 40.1238 11.4029 40.8119 9.61995L42.961 4.05119C43.6491 2.26827 46.1717 2.26827 46.8597 4.05119L49.0088 9.61995C49.6969 11.4029 52.2195 11.4029 52.9075 9.61995L55.0566 4.05119C55.7447 2.26827 58.2673 2.26827 58.9553 4.05119L63.0538 14.6711" stroke="#5D17B0" stroke-width="5.22371"/>
</svg>
