<svg width="30" height="31" viewBox="0 0 30 31" fill="none" xmlns="http://www.w3.org/2000/svg">
<path d="M0 3.58333V26.9167C0 28.75 1.48333 30.25 3.33333 30.25H26.6667C28.5 30.25 30 28.75 30 26.9167V3.58333C30 1.75 28.5 0.25 26.6667 0.25H3.33333C1.48333 0.25 0 1.75 0 3.58333ZM20 10.25C20 13.0167 17.7667 15.25 15 15.25C12.2333 15.25 10 13.0167 10 10.25C10 7.48333 12.2333 5.25 15 5.25C17.7667 5.25 20 7.48333 20 10.25ZM5 23.5833C5 20.25 11.6667 18.4167 15 18.4167C18.3333 18.4167 25 20.25 25 23.5833V25.25H5V23.5833Z" fill="black"/>
</svg>
