<svg width="30" height="31" viewBox="0 0 30 31" fill="none" xmlns="http://www.w3.org/2000/svg">
<path d="M0 3.83333V27.1667C0 29 1.48333 30.5 3.33333 30.5H26.6667C28.5 30.5 30 29 30 27.1667V3.83333C30 2 28.5 0.5 26.6667 0.5H3.33333C1.48333 0.5 0 2 0 3.83333ZM20 10.5C20 13.2667 17.7667 15.5 15 15.5C12.2333 15.5 10 13.2667 10 10.5C10 7.73333 12.2333 5.5 15 5.5C17.7667 5.5 20 7.73333 20 10.5ZM5 23.8333C5 20.5 11.6667 18.6667 15 18.6667C18.3333 18.6667 25 20.5 25 23.8333V25.5H5V23.8333Z" fill="black"/>
</svg>
