<svg width="40" height="40" viewBox="0 0 40 40" fill="none" xmlns="http://www.w3.org/2000/svg">
<path d="M24.7919 11.9035C26.1064 11.9762 27.3388 12.5654 28.2207 13.5428C29.1025 14.5202 29.5624 15.8065 29.4999 17.1215C29.4999 20.1935 26.8479 22.0805 24.3029 24.3435C21.7909 26.5865 20.4379 27.8125 19.9999 28.0955C19.5229 27.7865 17.8569 26.2725 15.6969 24.3435C13.1409 22.0715 10.4999 20.1665 10.4999 17.1215C10.4375 15.8065 10.8973 14.5202 11.7792 13.5428C12.6611 12.5654 13.8935 11.9762 15.2079 11.9035C15.9361 11.8814 16.6575 12.0487 17.3016 12.3889C17.9458 12.7291 18.4906 13.2306 18.8829 13.8445C19.7229 15.0195 19.8629 15.6075 20.0029 15.6075C20.1429 15.6075 20.2809 15.0195 21.1129 13.8415C21.503 13.2248 22.048 12.7213 22.6936 12.3812C23.3392 12.0411 24.0627 11.8764 24.7919 11.9035ZM24.7919 9.90348C23.8839 9.87441 22.9809 10.0506 22.1504 10.4188C21.3198 10.7871 20.583 11.338 19.9949 12.0305C19.4073 11.34 18.672 10.7904 17.8435 10.4222C17.0149 10.0541 16.1142 9.8768 15.2079 9.90348C13.3628 9.97564 11.6213 10.7755 10.3643 12.1281C9.10722 13.4807 8.43692 15.276 8.49992 17.1215C8.49992 20.7315 11.0499 22.9485 13.5149 25.0915C13.7979 25.3375 14.0839 25.5855 14.3679 25.8385L15.3949 26.7565C16.515 27.8223 17.6892 28.8296 18.9129 29.7745C19.2367 29.9841 19.6142 30.0957 19.9999 30.0957C20.3856 30.0957 20.7631 29.9841 21.0869 29.7745C22.3496 28.8007 23.56 27.761 24.7129 26.6595L25.6349 25.8355C25.9279 25.5755 26.2249 25.3165 26.5199 25.0615C28.8539 23.0365 31.4999 20.7415 31.4999 17.1215C31.5629 15.276 30.8926 13.4807 29.6356 12.1281C28.3785 10.7755 26.6371 9.97564 24.7919 9.90348Z" fill="#262626"/>
</svg>
