<svg width="216" height="37" viewBox="0 0 216 37" fill="none" xmlns="http://www.w3.org/2000/svg">
<path fill-rule="evenodd" clip-rule="evenodd" d="M168.104 0.405453C140.301 0.847572 121.876 2.55219 85.0248 8.09134C81.7839 8.57834 76.7169 9.33722 73.7647 9.77775C49.4457 13.4055 15.5043 22.4031 6.16555 27.6976C4.22881 28.7956 0.77832 31.8446 0.77832 32.4581C0.77832 32.5596 0.939463 32.4004 1.57329 31.6729C4.49543 28.3191 12.3356 25.3198 31.6415 20.1701C43.0454 17.1281 55.5072 14.3819 65.7718 12.6488C73.6071 11.3258 110.787 6.17752 112.037 6.24257C112.294 6.25582 110.876 6.52039 108.887 6.83042C87.5145 10.1615 80.2372 11.512 67.3471 14.54C57.3594 16.8861 51.5003 18.6065 36.528 23.5902C30.895 25.4651 31.0577 25.3955 30.9683 25.9746C30.742 27.4418 31.4634 27.4744 36.0899 26.2062C67.465 17.6064 86.1896 14.4791 115.538 12.9372C123.434 12.5224 150.789 12.1426 150.31 12.4544C150.036 12.6325 141.809 13.7242 128.023 15.4114C97.179 19.1866 77.4432 23.6705 55.715 31.8396C49.6903 34.1046 48.6092 34.8174 49.135 36.1774C49.6903 37.6135 53.1245 37.205 69.9141 33.7048C95.0593 28.4626 104.397 27.0586 124.523 25.4932C129.201 25.1293 137.237 24.7576 137.008 24.9158C136.944 24.9599 131.877 25.9359 125.748 27.0845C110.413 29.9583 100.572 32.0652 100.229 32.5485C99.6989 33.2935 99.8517 34.368 100.533 34.6887C101.364 35.0798 103.714 34.8658 109.12 33.9065C120.846 31.8258 132.564 30.6853 149.89 29.9381C152.483 29.8262 155.503 29.6502 156.6 29.547C159.152 29.3069 163.198 29.3075 165.071 29.5484C165.873 29.6514 166.871 29.7785 167.288 29.8309C168.87 30.0292 163.384 28.7519 161.045 28.3772C155.183 27.4384 147.541 27.2282 138.479 27.7566C136.4 27.8778 134.681 27.9464 134.659 27.9092C134.613 27.8309 136.719 27.4657 146.926 25.7832C154.752 24.4931 154.948 24.4361 155.246 23.3706C155.436 22.6945 155.246 21.8904 154.802 21.4836C154.466 21.176 143.038 21.2731 136.833 21.6363C121.958 22.5073 114.076 23.2499 104.161 24.7141C94.1296 26.1957 87.4656 27.5199 70.7984 31.3437C60.6512 33.6718 55.3083 34.7917 53.5199 34.9659L52.4114 35.0739L53.7533 34.4852C57.8925 32.6699 71.6904 28.2412 79.5406 26.2083C95.8477 21.9855 106.992 20.0479 131.99 17.0891C152.996 14.6031 157.298 13.8581 157.622 12.6505C157.972 11.3495 157.348 10.5766 155.619 10.1704C153.262 9.61661 124.16 9.75799 113.846 10.3733C103.733 10.9768 91.7211 12.1451 85.3749 13.1429C84.701 13.2489 83.9659 13.3242 83.7413 13.3104C82.09 13.2087 104.812 9.47148 117.813 7.70656C132.056 5.77318 143.323 4.6572 158.945 3.63277C169.045 2.97058 194.828 3.24759 205.269 4.13084C214.94 4.94904 215.287 4.96011 215.58 4.46342C215.886 3.94538 215.895 3.56119 215.611 3.08051C215.25 2.46874 213.215 2.14467 208.594 1.96276C206.893 1.89573 203.139 1.62464 200.251 1.36008C197.363 1.09572 193.793 0.789838 192.317 0.680297C189.532 0.473672 174.524 0.303425 168.104 0.405453ZM116.678 5.75419C116.599 5.80837 116.441 5.81173 116.328 5.76151C116.214 5.71128 116.279 5.66699 116.471 5.66304C116.664 5.65909 116.757 5.70002 116.678 5.75419ZM115.16 5.96141C115.017 6.00827 114.754 6.00946 114.577 5.96418C114.4 5.9187 114.517 5.88034 114.838 5.87876C115.159 5.87738 115.304 5.91454 115.16 5.96141ZM113.583 6.16151C113.407 6.20679 113.118 6.20679 112.942 6.16151C112.765 6.11623 112.91 6.07925 113.263 6.07925C113.616 6.07925 113.76 6.11623 113.583 6.16151ZM83.0704 13.4755C82.926 13.5225 82.6896 13.5225 82.5453 13.4755C82.4009 13.4282 82.519 13.3896 82.8078 13.3896C83.0966 13.3896 83.2147 13.4282 83.0704 13.4755ZM81.7868 13.6645C81.7067 13.7195 81.5754 13.7195 81.4951 13.6645C81.4149 13.6097 81.4805 13.5648 81.641 13.5648C81.8014 13.5648 81.8671 13.6097 81.7868 13.6645ZM168.309 30.0759C168.389 30.1309 168.52 30.1309 168.6 30.0759C168.681 30.0211 168.615 29.9762 168.455 29.9762C168.294 29.9762 168.229 30.0211 168.309 30.0759Z" fill="white"/>
</svg>
