<svg width="16" height="14" viewBox="0 0 16 14" fill="none" xmlns="http://www.w3.org/2000/svg">
<g clip-path="url(#clip0_1137_1642)">
<path d="M14.6673 0.150827C14.2914 0.0428744 5.09814 -0.855475 1.86953 3.42567C0.439607 5.32223 0.418127 7.9221 1.79787 11.1525C1.44787 11.8655 1.14147 12.6166 0.891767 13.4091C0.81585 13.6499 0.953169 13.9052 1.19825 13.9795C1.24394 13.9934 1.29021 14 1.3359 14C1.53404 14 1.718 13.8744 1.7794 13.6787C4.24018 5.87028 12.2372 2.09267 14.6895 1.13835C14.9282 1.0454 15.2471 0.317405 14.6673 0.150827Z" fill="#84829A"/>
<path d="M3.27393 12.1295C4.60497 12.6776 5.93582 12.9585 7.17343 12.9585C8.28583 12.9585 9.32324 12.734 10.2172 12.2788C12.0163 11.3628 13.1158 9.61057 13.3965 7.21108C13.6825 4.76565 14.0386 3.23392 14.3357 2.29688C11.6914 3.49404 6.02166 6.59716 3.27393 12.1295Z" fill="#84829A"/>
</g>
<defs>
<clipPath id="clip0_1137_1642">
<rect width="14.2641" height="14" fill="white" transform="translate(0.755371)"/>
</clipPath>
</defs>
</svg>
