<svg width="16" height="14" viewBox="0 0 16 14" fill="none" xmlns="http://www.w3.org/2000/svg">
<g clip-path="url(#clip0_1137_1642)">
<path d="M14.6668 0.150827C14.2909 0.0428744 5.09765 -0.855475 1.86904 3.42567C0.439118 5.32223 0.417639 7.9221 1.79738 11.1525C1.44738 11.8655 1.14098 12.6166 0.891279 13.4091C0.815361 13.6499 0.952681 13.9052 1.19776 13.9795C1.24345 13.9934 1.28973 14 1.33542 14C1.53355 14 1.71751 13.8744 1.77891 13.6787C4.23969 5.87028 12.2367 2.09267 14.689 1.13834C14.9277 1.0454 15.2466 0.317405 14.6668 0.150827Z" fill="#84829A"/>
<path d="M3.27344 12.1297C4.60448 12.6777 5.93533 12.9586 7.17294 12.9586C8.28534 12.9586 9.32275 12.7341 10.2167 12.2789C12.0158 11.3629 13.1153 9.61072 13.396 7.21123C13.682 4.76581 14.0381 3.23407 14.3352 2.29703C11.6909 3.49419 6.02117 6.59731 3.27344 12.1297Z" fill="#84829A"/>
</g>
<defs>
<clipPath id="clip0_1137_1642">
<rect width="14.2641" height="14" fill="white" transform="translate(0.754883)"/>
</clipPath>
</defs>
</svg>
