<svg width="40" height="40" viewBox="0 0 40 40" fill="none" xmlns="http://www.w3.org/2000/svg">
<path d="M24.792 11.9035C26.1064 11.9762 27.3389 12.5654 28.2207 13.5428C29.1026 14.5202 29.5624 15.8065 29.5 17.1215C29.5 20.1935 26.848 22.0805 24.303 24.3435C21.791 26.5865 20.438 27.8125 20 28.0955C19.523 27.7865 17.857 26.2725 15.697 24.3435C13.141 22.0715 10.5 20.1665 10.5 17.1215C10.4376 15.8065 10.8974 14.5202 11.7793 13.5428C12.6611 12.5654 13.8936 11.9762 15.208 11.9035C15.9361 11.8814 16.6576 12.0487 17.3017 12.3889C17.9459 12.7291 18.4907 13.2306 18.883 13.8445C19.723 15.0195 19.863 15.6075 20.003 15.6075C20.143 15.6075 20.281 15.0195 21.113 13.8415C21.5031 13.2248 22.0481 12.7213 22.6937 12.3812C23.3393 12.0411 24.0628 11.8764 24.792 11.9035ZM24.792 9.90348C23.8839 9.87441 22.981 10.0506 22.1504 10.4188C21.3199 10.7871 20.5831 11.338 19.995 12.0305C19.4074 11.34 18.6721 10.7904 17.8435 10.4222C17.015 10.0541 16.1143 9.8768 15.208 9.90348C13.3629 9.97564 11.6214 10.7755 10.3643 12.1281C9.1073 13.4807 8.43699 15.276 8.5 17.1215C8.5 20.7315 11.05 22.9485 13.515 25.0915C13.798 25.3375 14.084 25.5855 14.368 25.8385L15.395 26.7565C16.515 27.8223 17.6893 28.8296 18.913 29.7745C19.2368 29.9841 19.6143 30.0957 20 30.0957C20.3857 30.0957 20.7632 29.9841 21.087 29.7745C22.3497 28.8007 23.56 27.761 24.713 26.6595L25.635 25.8355C25.928 25.5755 26.225 25.3165 26.52 25.0615C28.854 23.0365 31.5 20.7415 31.5 17.1215C31.563 15.276 30.8927 13.4807 29.6357 12.1281C28.3786 10.7755 26.6371 9.97564 24.792 9.90348Z" fill="#262626"/>
</svg>
