<svg width="188" height="32" viewBox="0 0 188 32" fill="none" xmlns="http://www.w3.org/2000/svg">
<path fill-rule="evenodd" clip-rule="evenodd" d="M149.284 0.847398C128.883 1.32429 114.428 2.46191 94.3202 5.1728C77.7813 7.40265 66.8201 9.21449 48.105 12.8121C37.0999 14.9275 32.7897 15.9058 24.0356 18.2744C17.141 20.14 12.8324 21.2327 8.75182 22.1504C2.67875 23.5164 0.538086 24.1501 0.538086 24.5819C0.538086 24.7721 0.740414 24.8184 0.914358 24.668C1.06522 24.5376 1.89127 24.3406 6.96466 23.2257C11.2119 22.2922 14.3477 21.5416 20.6565 19.9479C34.8101 16.3729 36.1207 16.1018 58.0692 12.2131C89.1889 6.6994 114.461 3.77232 138.716 2.87238C161.749 2.01774 180.715 2.36726 185.581 3.73582C186.385 3.96191 186.389 3.94249 185.473 4.30819C183.342 5.1594 178.566 6.1416 169.128 7.66937C158.349 9.41406 152.501 10.2238 134.973 12.3992C121.626 14.0557 121.305 14.1008 103.678 16.8044C85.2134 19.6362 77.0823 20.9959 66.04 23.0981C62.1406 23.8404 61.8123 23.8961 57.0129 24.6297C47.463 26.0896 39.262 27.6778 31.2096 29.6267C28.588 30.2611 28.1151 30.5471 28.8005 31.0833C29.3523 31.5151 33.9318 30.7734 45.2977 28.4118C59.3254 25.497 61.3004 25.1426 69.3671 24.0914C80.9319 22.5843 90.5721 21.6072 98.635 21.125C106.714 20.6418 120.223 20.0265 127.539 19.8085C131.625 19.6867 147.451 19.5909 148.24 19.6833L148.853 19.755L148.281 19.8745C147.285 20.0827 129.634 23.0434 121.873 24.304C119.442 24.6988 115.933 25.2485 114.075 25.5255C108.016 26.4288 95.0181 28.5449 92.7261 29.0012C91.2946 29.2862 90.7927 29.8657 91.4702 30.4514C91.9317 30.8504 95.0286 30.8849 101.754 30.5662C103.355 30.4903 106.303 30.3652 108.304 30.2884C110.306 30.2115 113.297 30.0486 114.952 29.9264C116.607 29.8041 119.086 29.6606 120.462 29.6076C121.838 29.5546 123.573 29.4795 124.316 29.4408L125.668 29.3705L124.472 29.3565C122.907 29.3381 119.224 29.1935 116.102 29.028C112.442 28.834 104.424 28.8777 100.715 29.1121C100.296 29.1385 100.148 29.124 100.265 29.0676C100.492 28.9577 109.94 27.4293 114.387 26.7833C127.825 24.8308 150.798 20.9483 151.949 20.4353C152.971 19.9802 152.894 19.1838 151.79 18.785C149.812 18.0704 131.564 18.2034 115.218 19.0516C113.817 19.1242 110.542 19.2863 107.94 19.4117C98.1554 19.8833 88.5391 20.5631 84.9108 21.0399C84.6821 21.0699 84.5218 21.07 84.5546 21.0401C84.6868 20.9197 110.006 17.0383 119.828 15.6328C122.049 15.315 128.482 14.4865 134.124 13.7916C153.734 11.3766 158.261 10.7533 170.115 8.83711C184.753 6.47098 188.729 5.28732 187.895 3.54515C187.2 2.0946 183.218 1.43378 172.143 0.931088C169.493 0.810808 153.373 0.751749 149.284 0.847398Z" fill="white"/>
</svg>
