<svg width="216" height="37" viewBox="0 0 216 37" fill="none" xmlns="http://www.w3.org/2000/svg">
<path fill-rule="evenodd" clip-rule="evenodd" d="M168.104 0.404964C140.301 0.847084 121.876 2.5517 85.0248 8.09085C81.7839 8.57785 76.7169 9.33673 73.7647 9.77727C49.4457 13.405 15.5043 22.4026 6.16555 27.6971C4.22881 28.7951 0.77832 31.8441 0.77832 32.4576C0.77832 32.5591 0.939463 32.3999 1.5733 31.6725C4.49544 28.3186 12.3356 25.3193 31.6415 20.1696C43.0454 17.1276 55.5072 14.3814 65.7718 12.6483C73.6071 11.3253 110.787 6.17703 112.037 6.24209C112.294 6.25533 110.876 6.5199 108.887 6.82993C87.5145 10.1611 80.2372 11.5115 67.3471 14.5395C57.3594 16.8856 51.5003 18.606 36.528 23.5897C30.895 25.4646 31.0577 25.395 30.9683 25.9741C30.742 27.4413 31.4634 27.4739 36.0899 26.2057C67.465 17.6059 86.1896 14.4786 115.538 12.9368C123.434 12.5219 150.789 12.1421 150.31 12.4539C150.036 12.6321 141.809 13.7237 128.023 15.4109C97.179 19.1861 77.4432 23.67 55.715 31.8391C49.6903 34.1041 48.6092 34.8169 49.135 36.1769C49.6903 37.613 53.1245 37.2045 69.9141 33.7043C95.0593 28.4621 104.397 27.0581 124.523 25.4927C129.201 25.1289 137.237 24.7571 137.008 24.9153C136.944 24.9594 131.877 25.9354 125.748 27.084C110.413 29.9578 100.572 32.0647 100.229 32.548C99.6989 33.293 99.8517 34.3675 100.533 34.6882C101.364 35.0793 103.714 34.8654 109.12 33.906C120.846 31.8253 132.564 30.6848 149.89 29.9376C152.483 29.8257 155.502 29.6497 156.6 29.5465C159.152 29.3064 163.198 29.307 165.071 29.5479C165.873 29.6509 166.871 29.778 167.288 29.8304C168.87 30.0287 163.384 28.7514 161.045 28.3767C155.183 27.4379 147.541 27.2277 138.479 27.7561C136.4 27.8773 134.681 27.9459 134.659 27.9087C134.613 27.8304 136.719 27.4652 146.926 25.7827C154.752 24.4926 154.948 24.4356 155.246 23.3701C155.436 22.694 155.246 21.8899 154.802 21.4831C154.466 21.1755 143.038 21.2726 136.833 21.6358C121.958 22.5068 114.076 23.2494 104.161 24.7136C94.1296 26.1952 87.4656 27.5194 70.7984 31.3432C60.6512 33.6713 55.3083 34.7912 53.5199 34.9654L52.4114 35.0734L53.7533 34.4847C57.8925 32.6694 71.6904 28.2407 79.5406 26.2079C95.8477 21.985 106.992 20.0474 131.99 17.0886C152.996 14.6026 157.298 13.8576 157.622 12.6501C157.972 11.349 157.348 10.5761 155.619 10.17C153.262 9.61612 124.16 9.7575 113.846 10.3728C103.733 10.9763 91.7211 12.1447 85.3749 13.1424C84.701 13.2484 83.9659 13.3237 83.7413 13.3099C82.09 13.2082 104.812 9.47099 117.813 7.70607C132.056 5.77269 143.323 4.65671 158.945 3.63228C169.045 2.97009 194.828 3.2471 205.269 4.13035C214.94 4.94855 215.287 4.95963 215.58 4.46293C215.886 3.94489 215.895 3.5607 215.611 3.08002C215.25 2.46825 213.215 2.14419 208.594 1.96228C206.893 1.89525 203.139 1.62415 200.251 1.35959C197.363 1.09523 193.793 0.78935 192.317 0.679809C189.532 0.473183 174.524 0.302937 168.104 0.404964ZM116.678 5.7537C116.599 5.80788 116.441 5.81124 116.328 5.76102C116.214 5.71079 116.279 5.66651 116.471 5.66255C116.664 5.6586 116.757 5.69953 116.678 5.7537ZM115.16 5.96092C115.017 6.00778 114.754 6.00897 114.577 5.96369C114.4 5.91822 114.517 5.87986 114.838 5.87827C115.159 5.87689 115.304 5.91406 115.16 5.96092ZM113.583 6.16102C113.407 6.2063 113.118 6.2063 112.942 6.16102C112.765 6.11574 112.91 6.07877 113.263 6.07877C113.616 6.07877 113.76 6.11574 113.583 6.16102ZM83.0703 13.475C82.926 13.522 82.6896 13.522 82.5453 13.475C82.4009 13.4277 82.519 13.3892 82.8078 13.3892C83.0966 13.3892 83.2147 13.4277 83.0703 13.475ZM81.7868 13.664C81.7067 13.719 81.5754 13.719 81.4951 13.664C81.4149 13.6092 81.4805 13.5644 81.641 13.5644C81.8014 13.5644 81.8671 13.6092 81.7868 13.664ZM168.309 30.0754C168.389 30.1304 168.52 30.1304 168.6 30.0754C168.681 30.0206 168.615 29.9758 168.455 29.9758C168.294 29.9758 168.229 30.0206 168.309 30.0754Z" fill="white"/>
</svg>
