<svg width="227" height="21" viewBox="0 0 227 21" fill="none" xmlns="http://www.w3.org/2000/svg">
<path fill-rule="evenodd" clip-rule="evenodd" d="M176.759 0.0174828C147.522 0.271304 128.145 1.24993 89.393 4.42995C85.9848 4.70954 80.6563 5.14522 77.5519 5.39813C51.9782 7.4808 16.2856 12.6463 6.46498 15.6859C4.42832 16.3163 0.799805 18.0667 0.799805 18.4189C0.799805 18.4772 0.969261 18.3858 1.6358 17.9682C4.7087 16.0427 12.9534 14.3208 33.2553 11.3644C45.2477 9.61796 58.3523 8.04134 69.1466 7.04638C77.3861 6.28684 116.484 3.33123 117.799 3.36858C118.069 3.37618 116.578 3.52807 114.486 3.70606C92.0111 5.61846 84.3584 6.39378 70.8031 8.13216C60.3002 9.47902 54.1388 10.4667 38.394 13.3279C32.4704 14.4042 32.6414 14.3643 32.5474 14.6968C32.3094 15.539 33.0681 15.5578 37.9332 14.8297C70.9272 9.89255 90.6178 8.09719 121.48 7.212C129.784 6.97384 158.55 6.75577 158.047 6.93479C157.759 7.03707 149.107 7.66379 134.61 8.63242C102.174 10.7998 81.4202 13.374 58.5709 18.0639C52.2354 19.3642 51.0985 19.7734 51.6514 20.5542C52.2354 21.3786 55.8467 21.1441 73.5026 19.1347C99.9451 16.1251 109.764 15.3191 130.929 14.4204C135.849 14.2115 144.299 13.9981 144.058 14.0889C143.991 14.1142 138.662 14.6745 132.217 15.3339C116.091 16.9838 105.743 18.1934 105.381 18.4708C104.824 18.8985 104.985 19.5154 105.702 19.6995C106.575 19.9241 109.046 19.8012 114.732 19.2504C127.062 18.0559 139.385 17.4012 157.605 16.9722C160.332 16.9079 163.507 16.8069 164.661 16.7477C167.345 16.6098 171.599 16.6102 173.569 16.7484C174.412 16.8076 175.461 16.8806 175.9 16.9107C177.564 17.0245 171.795 16.2912 169.335 16.0761C163.171 15.5371 155.135 15.4165 145.605 15.7198C143.419 15.7894 141.611 15.8287 141.588 15.8074C141.539 15.7624 143.755 15.5528 154.488 14.5869C162.717 13.8462 162.924 13.8135 163.238 13.2018C163.436 12.8137 163.238 12.352 162.771 12.1185C162.417 11.9418 150.399 11.9976 143.874 12.2061C128.232 12.7062 119.943 13.1325 109.517 13.9731C98.9675 14.8237 91.9597 15.5839 74.4325 17.7792C63.7618 19.1157 58.1433 19.7587 56.2626 19.8587L55.0969 19.9206L56.508 19.5827C60.8608 18.5405 75.3706 15.998 83.6258 14.8309C100.774 12.4066 112.493 11.2942 138.782 9.5956C160.871 8.16836 165.395 7.74064 165.736 7.0474C166.104 6.30046 165.447 5.85673 163.63 5.62357C161.151 5.30562 130.548 5.38678 119.701 5.74004C109.066 6.08649 96.4348 6.75725 89.7611 7.33005C89.0525 7.39089 88.2794 7.43414 88.0432 7.4262C86.3067 7.36785 110.201 5.2223 123.873 4.20905C138.85 3.0991 150.699 2.45841 167.127 1.87029C177.748 1.49012 204.861 1.64916 215.841 2.15623C226.011 2.62596 226.376 2.63232 226.684 2.34717C227.006 2.04976 227.015 1.82919 226.717 1.55324C226.337 1.20202 224.197 1.01597 219.338 0.911537C217.549 0.873055 213.601 0.717421 210.564 0.565537C207.527 0.413766 203.773 0.238159 202.22 0.175271C199.292 0.0566474 183.51 -0.0410912 176.759 0.0174828ZM122.679 3.0882C122.596 3.1193 122.43 3.12123 122.311 3.0924C122.192 3.06356 122.26 3.03814 122.462 3.03587C122.664 3.0336 122.762 3.0571 122.679 3.0882ZM121.083 3.20716C120.932 3.23406 120.656 3.23475 120.47 3.20875C120.283 3.18264 120.407 3.16062 120.744 3.15971C121.082 3.15892 121.234 3.18026 121.083 3.20716ZM119.425 3.32204C119.239 3.34804 118.936 3.34804 118.75 3.32204C118.565 3.29605 118.716 3.27482 119.088 3.27482C119.459 3.27482 119.611 3.29605 119.425 3.32204ZM87.3376 7.52098C87.1859 7.548 86.9373 7.548 86.7855 7.52098C86.6337 7.49385 86.7579 7.47172 87.0616 7.47172C87.3653 7.47172 87.4894 7.49385 87.3376 7.52098ZM85.9879 7.6295C85.9036 7.66106 85.7656 7.66106 85.6811 7.6295C85.5968 7.59806 85.6658 7.5723 85.8345 7.5723C86.0032 7.5723 86.0723 7.59806 85.9879 7.6295ZM176.974 17.0513C177.058 17.0829 177.196 17.0829 177.281 17.0513C177.365 17.0199 177.296 16.9941 177.127 16.9941C176.958 16.9941 176.89 17.0199 176.974 17.0513Z" fill="white"/>
</svg>
