<svg width="200" height="19" viewBox="0 0 200 19" fill="none" xmlns="http://www.w3.org/2000/svg">
<path fill-rule="evenodd" clip-rule="evenodd" d="M158.271 0.0297457C136.564 0.327805 121.183 1.03882 99.7879 2.73312C82.1898 4.12678 70.5267 5.25917 50.613 7.50768C38.9032 8.82981 34.317 9.44122 25.0023 10.9216C17.6661 12.0876 13.0816 12.7705 8.73974 13.3441C2.27775 14.1978 0 14.5939 0 14.8638C0 14.9827 0.215285 15.0116 0.400368 14.9176C0.560892 14.8361 1.43984 14.713 6.83812 14.0162C11.3573 13.4327 14.6939 12.9636 21.4068 11.9676C36.4667 9.73315 37.8613 9.56375 61.2153 7.13332C94.328 3.68724 121.218 1.85782 147.027 1.29536C171.535 0.761212 191.716 0.979656 196.893 1.83501C197.748 1.97631 197.752 1.96418 196.778 2.19274C194.511 2.72475 189.429 3.33862 179.386 4.29348C167.917 5.38391 161.695 5.89002 143.044 7.24962C128.842 8.28494 128.501 8.31314 109.745 10.0028C90.0978 11.7728 81.446 12.6225 69.6966 13.9364C65.5475 14.4003 65.1982 14.4352 60.0914 14.8937C49.9299 15.8061 41.2038 16.7987 32.6357 18.0168C29.8462 18.4133 29.3431 18.592 30.0723 18.9272C30.6594 19.197 35.5322 18.7335 47.626 17.2575C62.5519 15.4358 64.6535 15.2142 73.2368 14.5572C85.5422 13.6153 95.7997 13.0046 104.379 12.7032C112.975 12.4012 127.35 12.0167 135.134 11.8804C139.482 11.8043 156.321 11.7444 157.16 11.8021L157.813 11.847L157.205 11.9216C156.145 12.0518 137.363 13.9022 129.105 14.6901C126.519 14.9368 122.785 15.2804 120.807 15.4536C114.361 16.0181 100.53 17.3407 98.0917 17.6258C96.5684 17.804 96.0344 18.1662 96.7553 18.5323C97.2464 18.7816 100.542 18.8032 107.698 18.604C109.402 18.5565 112.538 18.4784 114.668 18.4303C116.797 18.3823 119.98 18.2805 121.741 18.2041C123.501 18.1277 126.14 18.038 127.604 18.0049C129.068 17.9717 130.913 17.9248 131.704 17.9006L133.143 17.8567L131.87 17.8479C130.205 17.8364 126.286 17.7461 122.965 17.6426C119.07 17.5213 110.539 17.5487 106.592 17.6952C106.146 17.7117 105.989 17.7026 106.113 17.6674C106.355 17.5986 116.408 16.6434 121.139 16.2397C135.438 15.0194 159.882 12.5928 161.107 12.2722C162.194 11.9877 162.112 11.49 160.938 11.2407C158.833 10.7941 139.417 10.8772 122.024 11.4073C120.534 11.4527 117.049 11.554 114.28 11.6324C103.869 11.9272 93.6365 12.352 89.7759 12.65C89.5325 12.6688 89.3619 12.6688 89.3969 12.6502C89.5375 12.5749 116.479 10.149 126.929 9.27064C129.293 9.07197 136.138 8.55417 142.141 8.11987C163.006 6.61047 167.824 6.22094 180.437 5.02331C196.011 3.54448 200.243 2.8047 199.355 1.71584C198.615 0.809247 194.379 0.396236 182.594 0.0820518C179.775 0.00687686 162.622 -0.0300346 158.271 0.0297457Z" fill="white"/>
</svg>
