<svg width="14" height="14" viewBox="0 0 14 14" fill="none" xmlns="http://www.w3.org/2000/svg">
<g clip-path="url(#clip0_1127_2169)">
<path d="M13.2265 3.56123e-08C13.1526 -2.92608e-05 13.0796 0.0180173 13.0135 0.0527336L9.40687 1.94771L5.32858 0.0432416C5.32192 0.0402533 5.3143 0.039726 5.30716 0.0367377C5.28881 0.0295308 5.27005 0.0235251 5.251 0.0187497C5.23206 0.0133885 5.21282 0.00919911 5.19341 0.00624017C5.15476 0.00290038 5.11591 0.00290038 5.07729 0.00624017C5.05788 0.00919911 5.03864 0.0133885 5.0197 0.0187497C5.00066 0.0235251 4.98189 0.0295308 4.96354 0.0367377C4.9564 0.039726 4.94879 0.040224 4.94212 0.0432416L0.658694 2.04322C0.486743 2.12343 0.375949 2.30255 0.375977 2.50019V13.5C0.37606 13.6692 0.457518 13.8268 0.592518 13.919C0.727547 14.0114 0.897852 14.0257 1.04512 13.957L5.13532 12.047L9.22552 13.957C9.23266 13.96 9.24028 13.957 9.24742 13.9615C9.36264 14.0157 9.49491 14.0126 9.60769 13.953C9.6153 13.9496 9.62386 13.953 9.63147 13.9475L13.439 11.9476C13.6003 11.8629 13.7022 11.6896 13.7022 11.5V0.500237C13.7023 0.224088 13.4893 0.000117221 13.2265 3.56123e-08ZM4.65941 11.1751L1.32784 12.7305V2.8252L4.65941 1.26971V11.1751ZM8.94284 12.7305L5.61127 11.1751V1.26971L8.94284 2.82517V12.7305ZM12.7503 11.1911L9.8947 12.691V2.80918L12.7503 1.3092V11.1911V11.1911Z" fill="#84829A"/>
</g>
<defs>
<clipPath id="clip0_1127_2169">
<rect width="13.3264" height="14" fill="white" transform="translate(0.375)"/>
</clipPath>
</defs>
</svg>
