<svg width="15" height="14" viewBox="0 0 15 14" fill="none" xmlns="http://www.w3.org/2000/svg">
<path d="M13.2751 1.24215L6.83839 7.58298C6.7646 7.54102 6.687 7.50587 6.6066 7.47798L2.35708 6.06631C2.22857 6.0347 2.1145 5.96185 2.033 5.85934C1.95149 5.75682 1.90723 5.63051 1.90723 5.50048C1.90723 5.37045 1.95149 5.24414 2.033 5.14162C2.1145 5.03911 2.22857 4.96626 2.35708 4.93465L12.9006 1.25381C12.9696 1.23085 13.0418 1.21902 13.1146 1.21881C13.169 1.21795 13.2232 1.22583 13.2751 1.24215Z" fill="#84829A"/>
<path d="M13.6851 2.02375L9.93479 12.3838C9.89344 12.5045 9.81296 12.6086 9.70564 12.6803C9.59832 12.7519 9.47006 12.7871 9.34045 12.7804C9.20936 12.7863 9.07996 12.7494 8.97244 12.6756C8.86493 12.6017 8.78535 12.495 8.74612 12.3721L7.33159 8.20125C7.30317 8.12233 7.26736 8.04617 7.22461 7.97375L13.697 1.65625C13.7335 1.7768 13.7293 1.90571 13.6851 2.02375Z" fill="#84829A"/>
</svg>
