<svg width="16" height="14" viewBox="0 0 16 14" fill="none" xmlns="http://www.w3.org/2000/svg">
<path d="M14.0789 1.24215L7.36291 7.58298C7.28592 7.54102 7.20495 7.50587 7.12106 7.47798L2.68715 6.06631C2.55306 6.0347 2.43404 5.96185 2.349 5.85934C2.26396 5.75682 2.21777 5.63051 2.21777 5.50048C2.21777 5.37045 2.26396 5.24414 2.349 5.14162C2.43404 5.03911 2.55306 4.96626 2.68715 4.93465L13.6882 1.25381C13.7601 1.23085 13.8355 1.21902 13.9115 1.21881C13.9682 1.21795 14.0248 1.22583 14.0789 1.24215Z" fill="#84829A"/>
<path d="M14.5064 2.02375L10.5934 12.3838C10.5503 12.5045 10.4663 12.6086 10.3543 12.6803C10.2423 12.7519 10.1085 12.7871 9.97328 12.7804C9.83649 12.7863 9.70148 12.7494 9.5893 12.6756C9.47712 12.6017 9.39409 12.495 9.35315 12.3721L7.87725 8.20125C7.8476 8.12233 7.81023 8.04617 7.76562 7.97375L14.5188 1.65625C14.5569 1.7768 14.5526 1.90571 14.5064 2.02375Z" fill="#84829A"/>
</svg>
