<svg width="15" height="14" viewBox="0 0 15 14" fill="none" xmlns="http://www.w3.org/2000/svg">
<path d="M12.7187 1.24215L6.70514 7.58298C6.63621 7.54102 6.56371 7.50587 6.48859 7.47798L2.51842 6.06631C2.39836 6.0347 2.29179 5.96185 2.21565 5.85934C2.1395 5.75682 2.09814 5.63051 2.09814 5.50048C2.09814 5.37045 2.1395 5.24414 2.21565 5.14162C2.29179 5.03911 2.39836 4.96626 2.51842 4.93465L12.3689 1.25381C12.4333 1.23085 12.5008 1.21902 12.5688 1.21881C12.6196 1.21795 12.6703 1.22583 12.7187 1.24215Z" fill="#84829A"/>
<path d="M13.1017 2.02375L9.59794 12.3838C9.55931 12.5045 9.48411 12.6086 9.38385 12.6803C9.28358 12.7519 9.16376 12.7871 9.04267 12.7804C8.92019 12.7863 8.7993 12.7494 8.69885 12.6756C8.59841 12.6017 8.52406 12.495 8.4874 12.3721L7.16587 8.20125C7.13932 8.12233 7.10586 8.04617 7.06592 7.97375L13.1128 1.65625C13.1469 1.7768 13.143 1.90571 13.1017 2.02375Z" fill="#84829A"/>
</svg>
