<svg width="39" height="66" viewBox="0 0 39 66" fill="none" xmlns="http://www.w3.org/2000/svg">
<path d="M36.7222 29.9818L36.7224 29.982C37.3057 30.5409 37.639 31.304 37.639 32.1052C37.639 32.9056 37.3071 33.6698 36.7222 34.2285L36.7222 29.9818ZM36.7222 29.9818L5.77185 0.364861L5.77175 0.36476C4.56406 -0.790222 2.61704 -0.788247 1.41148 0.370668L1.41137 0.37078C0.194762 1.54107 0.198145 3.44533 1.41752 4.61225L1.41753 4.61226L30.1481 32.1052L1.4165 59.598L1.41643 59.598C0.197246 60.7651 0.193862 62.6683 1.41027 63.8387L1.41044 63.8388C2.01668 64.4216 2.8081 64.7101 3.59411 64.7101C4.37801 64.7101 5.16639 64.4236 5.77162 63.8447L5.77172 63.8446L36.7217 34.2289L36.7222 29.9818Z" fill="white" stroke="black"/>
</svg>
