<svg width="39" height="67" viewBox="0 0 39 67" fill="none" xmlns="http://www.w3.org/2000/svg">
<path d="M36.7222 30.9818L36.7224 30.982C37.3057 31.5409 37.639 32.304 37.639 33.1052C37.639 33.9056 37.3071 34.6698 36.7222 35.2285L36.7222 30.9818ZM36.7222 30.9818L5.77185 1.36486L5.77175 1.36476C4.56406 0.209777 2.61704 0.211753 1.41148 1.37067L1.41137 1.37078C0.194762 2.54107 0.198145 4.44533 1.41752 5.61225L1.41753 5.61226L30.1481 33.1052L1.4165 60.598L1.41643 60.598C0.197246 61.7651 0.193862 63.6683 1.41027 64.8387L1.41044 64.8388C2.01668 65.4216 2.8081 65.7101 3.59411 65.7101C4.37801 65.7101 5.16639 65.4236 5.77162 64.8447L5.77172 64.8446L36.7217 35.2289L36.7222 30.9818Z" fill="white" stroke="black"/>
</svg>
