<svg width="68" height="17" viewBox="0 0 68 17" fill="none" xmlns="http://www.w3.org/2000/svg">
<path d="M2.79102 15.6711L7.03962 4.9183C7.7359 3.15609 10.2299 3.15609 10.9262 4.9183L13.2315 10.7528C13.9278 12.515 16.4218 12.515 17.1181 10.7528L19.4234 4.9183C20.1197 3.15609 22.6137 3.15609 23.31 4.9183L25.6153 10.7528C26.3116 12.515 28.8056 12.515 29.5019 10.7528L31.8072 4.9183C32.5035 3.15609 34.9975 3.15609 35.6938 4.9183L37.9991 10.7528C38.6954 12.515 41.1894 12.515 41.8857 10.7528L44.191 4.9183C44.8873 3.15609 47.3813 3.15609 48.0776 4.9183L50.3829 10.7528C51.0792 12.515 53.5732 12.515 54.2695 10.7528L56.5748 4.9183C57.2711 3.15609 59.7651 3.15609 60.4614 4.9183L64.71 15.6711" stroke="#5D17B0" stroke-width="5.22371"/>
</svg>
